<svg width="60" height="60" viewBox="0 0 60 60" fill="none" xmlns="http://www.w3.org/2000/svg">
<circle opacity="0.4" cx="30" cy="30" r="29.5" fill="white" stroke="#EBEBEB"/>
<path d="M32.7775 34.6667C32.9299 34.8191 33.0061 35.0007 33.0061 35.2117C33.0061 35.4109 32.9299 35.5808 32.7775 35.7214C32.6369 35.8738 32.4611 35.95 32.2502 35.95C32.0393 35.95 31.8635 35.8738 31.7229 35.7214L27.2229 31.2214C27.0705 31.0808 26.9943 30.9109 26.9943 30.7117C26.9943 30.5007 27.0705 30.3191 27.2229 30.1667L31.7229 25.6667C31.8635 25.5261 32.0393 25.4558 32.2502 25.4558C32.4611 25.4558 32.6369 25.5261 32.7775 25.6667C32.9299 25.8191 33.0061 26.0007 33.0061 26.2117C33.0061 26.4109 32.9299 26.5808 32.7775 26.7214L28.8049 30.6941L32.7775 34.6667Z" fill="#111111"/>
</svg>
